<?xml version="1.0" encoding="UTF-8"?>
<svg id="Capa_1" data-name="Capa 1" xmlns="http://www.w3.org/2000/svg" viewBox="0 0 329.81 261.29">
  <defs>
    <style>
      .cls-1 {
        fill: #2b2b2b;
      }
    </style>
  </defs>
  <g>
    <g>
      <path class="cls-1" d="M158.65,234.33c-3.04-3.8-4.55-8.79-4.55-14.95,0-2.81.22-5.3.68-7.47,1-5.25,2.9-10.01,5.71-14.27,2.81-4.26,6.2-7.61,10.19-10.05,3.99-2.45,8.2-3.67,12.64-3.67,5.62,0,9.96,1.88,13.04,5.64,3.08,3.76,4.62,8.63,4.62,14.61,0,2.54-.27,5.12-.82,7.75-1.09,5.53-3.12,10.44-6.11,14.74-2.99,4.3-6.5,7.61-10.53,9.92-4.03,2.31-8.13,3.46-12.3,3.46-5.35,0-9.54-1.9-12.57-5.71ZM186.3,231.61c3.08-3.35,5.16-7.92,6.25-13.72.45-2.17.68-4.8.68-7.88,0-6.25-1.2-11.62-3.6-16.1-2.4-4.48-5.82-6.73-10.26-6.73-3.9,0-7.41,1.72-10.53,5.16-3.12,3.44-5.28,8.02-6.45,13.72-.54,2.54-.82,5.25-.82,8.15,0,6.16,1.27,11.44,3.8,15.83,2.54,4.4,6.07,6.59,10.6,6.59,3.8,0,7.25-1.68,10.33-5.03Z"/>
      <path class="cls-1" d="M209.6,237.93c-.77-.95-1.16-2.56-1.16-4.82,0-1.9.27-4.26.82-7.07l13.45-72.01c.18-.72.27-1.72.27-2.99,0-2.26-.91-3.4-2.72-3.4-1.45,0-3.62.68-6.52,2.04h-.27c-.36,0-.61-.23-.75-.68-.14-.45-.02-.72.34-.82l17.53-8.56h.27c.36,0,.68.14.95.41.27.27.36.5.27.68l-15.76,85.33c-.27,1.36-.41,2.58-.41,3.67,0,1.36.22,2.4.68,3.12.45.73,1.09,1.09,1.9,1.09,1.99,0,4.98-2.08,8.97-6.25.18-.18.36-.27.54-.27.27,0,.5.16.68.48.18.32.14.61-.14.88-3.08,3.62-5.82,6.3-8.22,8.02-2.4,1.72-4.73,2.58-7,2.58-1.72,0-2.97-.48-3.74-1.43Z"/>
      <path class="cls-1" d="M232.36,229.84c0-.72.09-2.08.27-4.08.9-6.43,3.31-12.91,7.2-19.43,3.89-6.52,8.47-11.89,13.72-16.1,5.25-4.21,10.19-6.32,14.81-6.32,2.81,0,5.3.79,7.47,2.38,2.17,1.59,3.4,3.92,3.67,7l-5.84-3.67c1.27-.18,2.63-.95,4.08-2.31,1.45-1.36,2.4-2.85,2.85-4.48.09-.27.41-.36.95-.27.54.09.77.23.68.41l-7.88,43.07c-.27,1.45-.41,2.72-.41,3.8,0,2.72.82,4.08,2.45,4.08,1.99,0,4.98-2.08,8.97-6.25.09-.09.23-.14.41-.14.27,0,.5.16.68.48.18.32.18.57,0,.75-3.08,3.53-5.82,6.18-8.22,7.95-2.4,1.77-4.73,2.65-7,2.65-1.54,0-2.7-.48-3.46-1.43-.77-.95-1.15-2.51-1.15-4.69,0-1.81.27-4.21.82-7.2l3.26-19.02,2.31-2.31c-4.08,10.42-9.1,18.89-15.08,25.41-5.98,6.52-11.69,9.78-17.12,9.78s-8.42-3.35-8.42-10.05ZM256.07,228.21c3.67-3.35,6.95-7.59,9.85-12.7,2.9-5.12,4.84-10.12,5.84-15.01.27-1.09.41-2.17.41-3.26,0-2.63-.73-4.71-2.17-6.25-1.45-1.54-3.53-2.31-6.25-2.31-3.17.09-6.41,1.52-9.71,4.28-3.31,2.76-6.21,6.5-8.7,11.21-2.49,4.71-4.19,9.87-5.1,15.49-.27,1.99-.41,3.8-.41,5.43,0,2.72.48,4.76,1.43,6.11s2.42,2.04,4.42,2.04c3.26,0,6.73-1.67,10.39-5.03Z"/>
    </g>
    <path class="cls-1" d="M159.7,162.72c1.68-2.52,2.92-4.89,3.72-7.1.8-2.21,1.19-4.47,1.19-6.77s-.39-4.53-1.16-6.44c-.77-1.9-1.89-3.54-3.35-4.91-1.46-1.37-3.24-2.42-5.34-3.15-2.1-.73-4.46-1.09-7.07-1.09-3.1,0-5.92.51-8.46,1.53-2.54,1.02-4.71,2.46-6.5,4.31-1.79,1.86-3.17,4.09-4.15,6.7-.97,2.61-1.46,5.51-1.46,8.69s.44,6.29,1.33,9.32c.88,3.03,1.99,6.04,3.32,9.02,1.33,2.99,2.78,5.94,4.35,8.86,1.57,2.92,3.02,5.84,4.35,8.76,1.33,2.92,2.43,5.86,3.32,8.82.88,2.96,1.33,5.97,1.33,9.02s-.49,6.05-1.46,8.86c-.97,2.81-2.33,5.39-4.08,7.73-1.75,2.34-3.81,4.47-6.2,6.37-2.39,1.9-4.99,3.52-7.8,4.84-2.81,1.33-5.78,2.34-8.92,3.05-3.14.71-6.33,1.06-9.55,1.06-4.91,0-9.22-.77-12.94-2.32s-6.83-3.6-9.35-6.17c-2.52-2.57-4.41-5.52-5.67-8.86-1.26-3.34-1.89-6.8-1.89-10.38,0-2.26.24-4.42.73-6.5.49-2.08,1.16-3.91,2.02-5.51.86-1.59,1.88-2.85,3.05-3.78,1.17-.93,2.44-1.39,3.81-1.39,1.19,0,2.13.33,2.82,1,.69.66,1.03,1.57,1.03,2.72,0,.93-.23,1.69-.7,2.29-.46.6-1.03,1.09-1.69,1.49s-1.37.73-2.12,1c-.75.27-1.42.53-1.99.8-1.15.53-2.11,1.44-2.89,2.72-.77,1.28-1.16,3.27-1.16,5.97s.51,5.53,1.53,8.36c1.02,2.83,2.58,5.4,4.68,7.7,2.1,2.3,4.77,4.17,7.99,5.61,3.23,1.44,7.05,2.16,11.48,2.16,3.85,0,7.49-.59,10.91-1.76,3.43-1.17,6.44-2.9,9.02-5.17,2.59-2.28,4.63-5.13,6.14-8.56,1.5-3.43,2.26-7.4,2.26-11.91,0-3.41-.41-6.54-1.23-9.42-.82-2.87-1.84-5.62-3.05-8.23-1.22-2.61-2.54-5.14-3.98-7.6-1.44-2.45-2.76-4.96-3.98-7.53-1.22-2.56-2.23-5.23-3.05-7.99-.82-2.76-1.23-5.78-1.23-9.06,0-4.16.72-7.99,2.16-11.51,1.44-3.52,3.48-6.56,6.14-9.12,2.65-2.56,5.85-4.57,9.59-6,3.74-1.44,7.91-2.16,12.51-2.16,3.32,0,6.31.39,8.99,1.16,2.68.77,4.95,1.89,6.83,3.35,1.88,1.46,3.32,3.23,4.31,5.31,1,2.08,1.49,4.42,1.49,7.03,0,2.88-.62,5.58-1.86,8.13-1.24,2.54-3.18,5.12-5.84,7.73l-2.26-1.06Z"/>
  </g>
  <g>
    <g>
      <path class="cls-1" d="M124.64,124.33c-3.04-3.8-4.55-8.79-4.55-14.95,0-2.81.22-5.3.68-7.47,1-5.25,2.9-10.01,5.71-14.27,2.81-4.26,6.2-7.61,10.19-10.05,3.99-2.45,8.2-3.67,12.64-3.67,5.62,0,9.96,1.88,13.04,5.64,3.08,3.76,4.62,8.63,4.62,14.61,0,2.54-.27,5.12-.82,7.75-1.09,5.53-3.12,10.44-6.11,14.74-2.99,4.3-6.5,7.61-10.53,9.92-4.03,2.31-8.13,3.46-12.3,3.46-5.35,0-9.54-1.9-12.57-5.71ZM152.29,121.61c3.08-3.35,5.16-7.92,6.25-13.72.45-2.17.68-4.8.68-7.88,0-6.25-1.2-11.62-3.6-16.1-2.4-4.48-5.82-6.73-10.26-6.73-3.9,0-7.41,1.72-10.53,5.16-3.12,3.44-5.28,8.02-6.45,13.72-.54,2.54-.82,5.25-.82,8.15,0,6.16,1.27,11.44,3.8,15.83,2.54,4.4,6.07,6.59,10.6,6.59,3.8,0,7.25-1.68,10.33-5.03Z"/>
      <path class="cls-1" d="M151.21,164c-1.45-1-2.17-2.22-2.17-3.67,0-1.36.45-2.51,1.36-3.46.91-.95,2.08-1.43,3.53-1.43,1.36,0,2.36.36,2.99,1.09.63.72,1.18,1.77,1.63,3.12.36,1.18.75,2.04,1.15,2.58.41.54,1.07.82,1.97.82,1.09,0,2.01-.7,2.79-2.11.77-1.41,1.56-4.1,2.38-8.08.82-3.99,1.81-10.1,2.99-18.34l6.93-47.96c.18-1.81.27-2.99.27-3.53,0-1.72-.5-2.81-1.5-3.26-1-.45-3.08-.68-6.25-.68-.27,0-.41-.23-.41-.68,0-.18.07-.38.2-.61.14-.22.25-.34.34-.34,3.17,0,5.48-.48,6.93-1.43,1.45-.95,2.31-2.51,2.58-4.69,1.9-12.05,3.96-21.08,6.18-27.11,2.22-6.02,4.57-9.99,7.07-11.89,2.49-1.9,5.55-2.85,9.17-2.85,2.45,0,4.35.48,5.71,1.43s2.04,2.2,2.04,3.74-.41,2.74-1.22,3.6c-.82.86-1.95,1.29-3.4,1.29-1.54,0-2.58-.41-3.12-1.22-.54-.82-.91-1.99-1.09-3.53-.18-1.09-.41-1.9-.68-2.45-.27-.54-.81-.82-1.63-.82-2.27,0-4.28,2.99-6.05,8.97-1.77,5.98-3.56,15.31-5.37,27.99l-9.1,62.5c-1.27,8.79-2.74,15.65-4.42,20.58-1.68,4.94-3.71,8.49-6.11,10.67-2.4,2.17-5.5,3.26-9.31,3.26-2.81,0-4.94-.5-6.39-1.49ZM190.07,80.85c-2.99-.45-6.07-.68-9.24-.68l.27-3.12c2.63,0,7.56-.23,14.81-.68,1.63-.18,2.76-.27,3.4-.27s.95.32.95.95c0,.73-.54,1.72-1.63,2.99-1.09,1.27-2.08,1.81-2.99,1.63-.73-.09-2.58-.36-5.57-.81Z"/>
      <path class="cls-1" d="M203.79,127.93c-.82-.95-1.22-2.51-1.22-4.69,0-1.36.32-3.76.95-7.2l5.57-28.26c.27-1.36.41-2.58.41-3.67,0-1.36-.25-2.42-.75-3.19-.5-.77-1.16-1.15-1.97-1.15-1.09,0-2.47.54-4.14,1.63-1.68,1.09-3.42,2.63-5.23,4.62-.09.09-.23.14-.41.14-.27,0-.52-.16-.75-.48-.23-.32-.2-.56.07-.75,3.17-3.62,6.02-6.27,8.56-7.95,2.54-1.67,4.94-2.51,7.2-2.51,1.63,0,2.83.45,3.6,1.36.77.91,1.16,2.4,1.16,4.48,0,1.27-.32,3.67-.95,7.2l-5.43,28.53c-.27,1.45-.41,2.67-.41,3.67,0,2.81.86,4.21,2.58,4.21,2.17,0,5.25-1.99,9.24-5.98.18-.18.36-.27.54-.27.27,0,.5.16.68.48.18.32.14.61-.14.88-3.08,3.53-5.84,6.14-8.29,7.81s-4.85,2.51-7.2,2.51c-1.63,0-2.85-.48-3.67-1.43ZM211.74,64c-.5-.18-.66-.36-.48-.54l12.64-32.61c.18-.45,1.16-.9,2.92-1.36,1.77-.45,3.28-.68,4.55-.68.9,0,1.31.18,1.22.54l-19.97,34.51c-.09.27-.39.32-.88.14Z"/>
      <path class="cls-1" d="M221.45,119.84c0-.72.09-2.08.27-4.08.9-6.43,3.31-12.91,7.2-19.43,3.89-6.52,8.47-11.89,13.72-16.1,5.25-4.21,10.19-6.32,14.81-6.32,2.81,0,5.3.79,7.47,2.38,2.17,1.59,3.4,3.92,3.67,7l-5.84-3.67c1.27-.18,2.63-.95,4.08-2.31,1.45-1.36,2.4-2.85,2.85-4.48.09-.27.41-.36.95-.27.54.09.77.23.68.41l-7.88,43.07c-.27,1.45-.41,2.72-.41,3.8,0,2.72.82,4.08,2.45,4.08,1.99,0,4.98-2.08,8.97-6.25.09-.09.23-.14.41-.14.27,0,.5.16.68.48.18.32.18.57,0,.75-3.08,3.53-5.82,6.18-8.22,7.95-2.4,1.77-4.73,2.65-7,2.65-1.54,0-2.7-.48-3.46-1.43-.77-.95-1.15-2.51-1.15-4.69,0-1.81.27-4.21.82-7.2l3.26-19.02,2.31-2.31c-4.08,10.42-9.1,18.89-15.08,25.41-5.98,6.52-11.69,9.78-17.12,9.78s-8.42-3.35-8.42-10.05ZM245.16,118.21c3.67-3.35,6.95-7.59,9.85-12.7,2.9-5.12,4.84-10.12,5.84-15.01.27-1.09.41-2.17.41-3.26,0-2.63-.73-4.71-2.17-6.25-1.45-1.54-3.53-2.31-6.25-2.31-3.17.09-6.41,1.52-9.71,4.28-3.31,2.76-6.21,6.5-8.7,11.21-2.49,4.71-4.19,9.87-5.1,15.49-.27,1.99-.41,3.8-.41,5.43,0,2.72.48,4.76,1.43,6.11s2.42,2.04,4.42,2.04c3.26,0,6.73-1.67,10.39-5.03Z"/>
    </g>
    <path class="cls-1" d="M125.7,52.72c1.68-2.52,2.92-4.89,3.72-7.1.8-2.21,1.19-4.47,1.19-6.77s-.39-4.53-1.16-6.44c-.77-1.9-1.89-3.54-3.35-4.91-1.46-1.37-3.24-2.42-5.34-3.15-2.1-.73-4.46-1.09-7.07-1.09-3.1,0-5.92.51-8.46,1.53-2.54,1.02-4.71,2.46-6.5,4.31-1.79,1.86-3.17,4.09-4.15,6.7-.97,2.61-1.46,5.51-1.46,8.69s.44,6.29,1.33,9.32c.88,3.03,1.99,6.04,3.32,9.02,1.33,2.99,2.78,5.94,4.35,8.86,1.57,2.92,3.02,5.84,4.35,8.76,1.33,2.92,2.43,5.86,3.32,8.82.88,2.96,1.33,5.97,1.33,9.02s-.49,6.05-1.46,8.86c-.97,2.81-2.33,5.39-4.08,7.73-1.75,2.34-3.81,4.47-6.2,6.37-2.39,1.9-4.99,3.52-7.8,4.84-2.81,1.33-5.78,2.34-8.92,3.05-3.14.71-6.33,1.06-9.55,1.06-4.91,0-9.22-.77-12.94-2.32s-6.83-3.6-9.35-6.17c-2.52-2.57-4.41-5.52-5.67-8.86-1.26-3.34-1.89-6.8-1.89-10.38,0-2.26.24-4.42.73-6.5.49-2.08,1.16-3.91,2.02-5.51.86-1.59,1.88-2.85,3.05-3.78,1.17-.93,2.44-1.39,3.81-1.39,1.19,0,2.13.33,2.82,1,.69.66,1.03,1.57,1.03,2.72,0,.93-.23,1.69-.7,2.29-.46.6-1.03,1.09-1.69,1.49s-1.37.73-2.12,1c-.75.27-1.42.53-1.99.8-1.15.53-2.11,1.44-2.89,2.72-.77,1.28-1.16,3.27-1.16,5.97s.51,5.53,1.53,8.36c1.02,2.83,2.58,5.4,4.68,7.7,2.1,2.3,4.77,4.17,7.99,5.61,3.23,1.44,7.05,2.16,11.48,2.16,3.85,0,7.49-.59,10.91-1.76,3.43-1.17,6.44-2.9,9.02-5.17,2.59-2.28,4.63-5.13,6.14-8.56,1.5-3.43,2.26-7.4,2.26-11.91,0-3.41-.41-6.54-1.23-9.42-.82-2.87-1.84-5.62-3.05-8.23-1.22-2.61-2.54-5.14-3.98-7.6-1.44-2.45-2.76-4.96-3.98-7.53-1.22-2.56-2.23-5.23-3.05-7.99-.82-2.76-1.23-5.78-1.23-9.06,0-4.16.72-7.99,2.16-11.51,1.44-3.52,3.48-6.56,6.14-9.12,2.65-2.56,5.85-4.57,9.59-6,3.74-1.44,7.91-2.16,12.51-2.16,3.32,0,6.31.39,8.99,1.16,2.68.77,4.95,1.89,6.83,3.35,1.88,1.46,3.32,3.23,4.31,5.31,1,2.08,1.49,4.42,1.49,7.03,0,2.88-.62,5.58-1.86,8.13-1.24,2.54-3.18,5.12-5.84,7.73l-2.26-1.06Z"/>
  </g>
</svg>