<?xml version="1.0" encoding="UTF-8"?>
<svg id="Capa_1" data-name="Capa 1" xmlns="http://www.w3.org/2000/svg" viewBox="0 0 306.11 261.29">
  <defs>
    <style>
      .cls-1 {
        fill: #2b2b2b;
      }
    </style>
  </defs>
  <g>
    <path class="cls-1" d="M153.23,13.57c23.38,0,44.1,7.38,60.67,20.46.55.44,1.09.88,1.64,1.35,2.02,1.66,4,3.43,5.89,5.28,2.54,2.48,4.96,5.11,7.25,7.89v-12.22c-.42-.34-.86-.67-1.3-.99-1.89-1.47-3.87-2.86-5.87-4.18-3.91-2.57-7.99-4.9-12.26-7-3.51-1.72-7.15-3.26-10.89-4.65-.9-.34-1.81-.65-2.71-.95-12.95-4.42-27.17-6.77-42.42-6.77-69.67,0-118.88,49.19-118.88,119.23s49.21,118.5,118.88,118.5c15.25,0,29.46-2.33,42.42-6.73.97-.32,1.93-.65,2.88-1.01,3.62-1.32,7.11-2.8,10.51-4.44,4.33-2.1,8.5-4.46,12.47-7.07,2-1.3,3.97-2.69,5.87-4.14.44-.32.88-.65,1.3-.99v-12.13c-2.29,2.75-4.71,5.36-7.25,7.82-1.89,1.83-3.85,3.6-5.87,5.26-.57.44-1.11.9-1.68,1.32-16.57,13-37.26,20.31-60.65,20.31-60.33,0-102.71-48.14-102.71-116.71S92.9,13.57,153.23,13.57Z"/>
    <path class="cls-1" d="M271.75,131.01v.36c-.11,39.87-16.21,72.89-43.07,93.77v-12.13c16.93-20.4,26.83-48.64,26.9-81.63v-1.81c-.29-32.72-10.16-60.73-26.9-81.02v-12.22c26.62,20.84,42.67,53.64,43.05,93.24.02.48.02.97.02,1.45Z"/>
  </g>
  <path class="cls-1" d="M224.62,94.31c3.16-4.74,5.49-9.19,6.99-13.36,1.5-4.16,2.25-8.4,2.25-12.73s-.73-8.53-2.18-12.11c-1.46-3.58-3.56-6.66-6.3-9.24-2.75-2.58-6.1-4.56-10.05-5.93-3.95-1.37-8.38-2.06-13.29-2.06-5.83,0-11.13.96-15.92,2.87-4.79,1.92-8.86,4.62-12.23,8.11-3.37,3.5-5.97,7.7-7.8,12.61-1.83,4.91-2.75,10.36-2.75,16.35s.83,11.84,2.5,17.54c1.66,5.7,3.74,11.36,6.24,16.98,2.5,5.62,5.22,11.17,8.18,16.67,2.95,5.49,5.68,10.98,8.18,16.48,2.5,5.49,4.58,11.03,6.24,16.6,1.66,5.58,2.5,11.23,2.5,16.98s-.92,11.38-2.75,16.67c-1.83,5.29-4.39,10.13-7.68,14.54-3.29,4.41-7.18,8.41-11.67,11.98-4.49,3.58-9.38,6.62-14.67,9.11-5.29,2.5-10.88,4.41-16.79,5.74-5.91,1.33-11.9,2-17.98,2-9.24,0-17.35-1.46-24.34-4.37-6.99-2.91-12.86-6.78-17.6-11.61-4.74-4.83-8.3-10.38-10.67-16.66-2.37-6.28-3.56-12.8-3.56-19.54,0-4.24.46-8.32,1.37-12.23.91-3.91,2.18-7.37,3.81-10.36,1.62-3,3.54-5.37,5.74-7.12,2.2-1.75,4.6-2.62,7.18-2.62,2.25,0,4.01.62,5.31,1.87,1.29,1.25,1.93,2.95,1.93,5.12,0,1.75-.44,3.18-1.31,4.31-.87,1.12-1.94,2.06-3.18,2.81-1.25.75-2.58,1.37-3.99,1.87-1.42.5-2.66,1-3.74,1.5-2.16,1-3.97,2.71-5.43,5.12-1.46,2.41-2.18,6.16-2.18,11.23s.96,10.4,2.87,15.73c1.91,5.33,4.85,10.15,8.8,14.48,3.95,4.33,8.97,7.84,15.04,10.55,6.07,2.71,13.27,4.06,21.6,4.06,7.24,0,14.08-1.1,20.53-3.31,6.45-2.2,12.11-5.45,16.98-9.74,4.87-4.28,8.72-9.65,11.55-16.1,2.83-6.45,4.24-13.92,4.24-22.41,0-6.41-.77-12.32-2.31-17.73-1.54-5.41-3.45-10.57-5.74-15.48-2.29-4.91-4.79-9.67-7.49-14.29-2.71-4.62-5.2-9.34-7.49-14.17-2.29-4.83-4.2-9.84-5.74-15.04-1.54-5.2-2.31-10.88-2.31-17.04,0-7.82,1.35-15.04,4.06-21.66,2.7-6.62,6.55-12.34,11.55-17.16,4.99-4.83,11-8.59,18.04-11.3,7.03-2.7,14.87-4.06,23.53-4.06,6.24,0,11.88.73,16.91,2.18,5.03,1.46,9.32,3.56,12.86,6.3,3.54,2.75,6.24,6.08,8.11,9.99,1.87,3.91,2.81,8.32,2.81,13.23,0,5.41-1.17,10.51-3.5,15.29-2.33,4.79-5.99,9.63-10.98,14.54l-4.24-2Z"/>
</svg>