<?xml version="1.0" encoding="UTF-8"?>
<svg id="Capa_1" data-name="Capa 1" xmlns="http://www.w3.org/2000/svg" viewBox="0 0 297.76 272.05">
  <defs>
    <style>
      .cls-1 {
        fill: #d0c0b1;
      }
    </style>
  </defs>
  <g>
    <path class="cls-1" d="M66.12,217.28c0-1.66.57-2.94,1.71-3.84,1.14-.9,2.76-1.35,4.88-1.35s3.82.49,4.94,1.46c1.11.97,1.69,2.31,1.72,4.03h-3.94c0-.7-.22-1.26-.67-1.67-.45-.42-1.17-.62-2.17-.62-.81,0-1.45.15-1.9.46s-.67.74-.67,1.31c0,.35.09.64.27.89.18.24.43.44.74.61.31.17.66.3,1.07.41s.84.21,1.28.31c.7.15,1.42.31,2.17.49.75.17,1.43.43,2.06.77.62.34,1.13.8,1.53,1.38.4.58.6,1.36.6,2.32,0,1.53-.56,2.75-1.68,3.68-1.12.92-2.85,1.38-5.17,1.38s-4.16-.49-5.35-1.47-1.78-2.31-1.78-3.99h3.94c.13,1.53,1.21,2.29,3.22,2.29.9,0,1.59-.15,2.08-.45s.74-.71.74-1.25c0-.37-.1-.66-.29-.9-.19-.23-.45-.42-.79-.57-.33-.15-.72-.27-1.16-.37s-.9-.19-1.38-.27c-.68-.13-1.38-.28-2.08-.45-.71-.17-1.35-.43-1.93-.79-.58-.36-1.06-.83-1.42-1.43s-.55-1.39-.55-2.37Z"/>
    <path class="cls-1" d="M84.15,220.69c0-1.18.23-2.29.69-3.34.46-1.05,1.08-1.96,1.86-2.74s1.7-1.4,2.76-1.84c1.06-.45,2.18-.67,3.38-.67s2.32.22,3.38.67c1.06.45,1.98,1.06,2.77,1.84.79.78,1.41,1.7,1.86,2.74.45,1.05.67,2.16.67,3.34s-.22,2.32-.67,3.35c-.45,1.04-1.07,1.95-1.86,2.73-.79.78-1.71,1.4-2.77,1.85s-2.18.67-3.38.67-2.32-.22-3.38-.67-1.97-1.06-2.76-1.85c-.78-.78-1.4-1.69-1.86-2.73-.46-1.04-.69-2.16-.69-3.35ZM88.19,220.67c0,.67.12,1.29.36,1.87.24.58.57,1.09,1,1.52.42.43.91.77,1.47,1.02s1.16.37,1.81.37,1.25-.12,1.81-.37c.56-.25,1.05-.59,1.47-1.02.42-.43.76-.94,1-1.52.24-.58.36-1.21.36-1.87s-.12-1.26-.36-1.83c-.24-.57-.57-1.08-1-1.51-.42-.43-.92-.77-1.48-1.02-.57-.25-1.16-.37-1.8-.37s-1.23.12-1.8.37c-.57.25-1.06.59-1.48,1.02-.42.43-.76.94-1,1.51-.24.57-.36,1.18-.36,1.83Z"/>
    <path class="cls-1" d="M106.62,212.34h12.12v3.34h-8.28v3.69h6.81v3.29h-6.81v6.38h-3.84v-16.71Z"/>
    <path class="cls-1" d="M122.45,209.3l4.99-3.09,1.32,2.39-5.21,2.67-1.1-1.97ZM123.67,212.34h3.84v16.71h-3.84v-16.71Z"/>
    <path class="cls-1" d="M137.93,212.34h4.71l6.13,16.71h-3.92l-1.1-2.94h-6.98l-1.07,2.94h-3.92l6.13-16.71ZM142.7,223.06l-2.39-6.56-2.42,6.56h4.81Z"/>
    <path class="cls-1" d="M161.47,217.28c0-1.66.57-2.94,1.71-3.84,1.14-.9,2.76-1.35,4.88-1.35s3.82.49,4.94,1.46c1.11.97,1.69,2.31,1.72,4.03h-3.94c0-.7-.22-1.26-.67-1.67-.45-.42-1.17-.62-2.17-.62-.81,0-1.45.15-1.9.46s-.67.74-.67,1.31c0,.35.09.64.27.89.18.24.43.44.74.61.31.17.66.3,1.07.41s.84.21,1.28.31c.7.15,1.42.31,2.17.49.75.17,1.43.43,2.06.77.62.34,1.13.8,1.53,1.38.4.58.6,1.36.6,2.32,0,1.53-.56,2.75-1.68,3.68-1.12.92-2.85,1.38-5.17,1.38s-4.16-.49-5.35-1.47-1.78-2.31-1.78-3.99h3.94c.13,1.53,1.21,2.29,3.22,2.29.9,0,1.59-.15,2.08-.45s.74-.71.74-1.25c0-.37-.1-.66-.29-.9-.19-.23-.45-.42-.79-.57-.33-.15-.72-.27-1.16-.37s-.9-.19-1.38-.27c-.68-.13-1.38-.28-2.08-.45-.71-.17-1.35-.43-1.93-.79-.58-.36-1.06-.83-1.42-1.43s-.55-1.39-.55-2.37Z"/>
    <path class="cls-1" d="M179.5,220.69c0-1.18.23-2.29.69-3.34.46-1.05,1.08-1.96,1.86-2.74s1.7-1.4,2.76-1.84c1.06-.45,2.18-.67,3.38-.67s2.32.22,3.38.67c1.06.45,1.98,1.06,2.77,1.84.79.78,1.41,1.7,1.86,2.74.45,1.05.67,2.16.67,3.34s-.22,2.32-.67,3.35c-.45,1.04-1.07,1.95-1.86,2.73-.79.78-1.71,1.4-2.77,1.85s-2.18.67-3.38.67-2.32-.22-3.38-.67-1.97-1.06-2.76-1.85c-.78-.78-1.4-1.69-1.86-2.73-.46-1.04-.69-2.16-.69-3.35ZM183.54,220.67c0,.67.12,1.29.36,1.87.24.58.57,1.09,1,1.52.42.43.91.77,1.47,1.02s1.16.37,1.81.37,1.25-.12,1.81-.37c.56-.25,1.05-.59,1.47-1.02.42-.43.76-.94,1-1.52.24-.58.36-1.21.36-1.87s-.12-1.26-.36-1.83c-.24-.57-.57-1.08-1-1.51-.42-.43-.92-.77-1.48-1.02-.57-.25-1.16-.37-1.8-.37s-1.23.12-1.8.37c-.57.25-1.06.59-1.48,1.02-.42.43-.76.94-1,1.51-.24.57-.36,1.18-.36,1.83Z"/>
    <path class="cls-1" d="M201.97,212.34h3.84v13.22h7.16v3.49h-11v-16.71Z"/>
    <path class="cls-1" d="M222.17,212.34h4.71l6.13,16.71h-3.92l-1.1-2.94h-6.98l-1.07,2.94h-3.92l6.13-16.71ZM226.93,223.06l-2.39-6.56-2.42,6.56h4.81Z"/>
  </g>
  <g>
    <g>
      <path class="cls-1" d="M157.97,183.51c0-1.94-.21-3.83-.41-5.2-1.42-9.91-11.55-16.97-21.3-15.71-.02-2.07-1.09-3.32-2.21-4.72H59.35c-1.33,1.28-2.15,2.73-2.27,4.72-10.09-1.27-20.22,6.13-21.41,16.31-.16,1.37-.33,2.98-.34,4.6h122.64Z"/>
      <rect class="cls-1" x="53.18" y="145.43" width="86.95" height="12.93" rx="6.47" ry="6.47"/>
    </g>
    <g>
      <g>
        <path class="cls-1" d="M217.61,181.83c.86-.92,2.43-1.17,3.58-.86,1.33.37,2.22,1.38,2.65,2.65.05.15.08.32.12.48,0-.03,0-.07,0-.1,0-2.58-1.77-4.67-3.95-4.67-1.62,0-3.01,1.15-3.62,2.81.39-.14.8-.26,1.21-.32Z"/>
        <path class="cls-1" d="M262.27,150.36c-.85-3.74-2.97-3.53-5.74-5.17,9.32-10.36.46-28.32-13.62-25.69.04-6.59-3.08-12.95-10.05-14.36-8.02-1.64-13.41,3.87-16.35,10.73-3.62-6-10.55-3.81-11.84,2.54-2.99-3.11-5.74-6.51-8.74-9.64-1.26-1.31-3.56-2.37-4.44-4.02-.27-.49,3.06-5.49-1.61-8.2-.73-.42-1.92-.03-2.34-.36-.75-.58.34-3.61-3.26-5.34-2.6-1.26-5.12,1.11-5.31.9L112.92,18.97l-9.4,8.53,6.67,7.37-5.94,5.38c-1.8,1.63,7.67,5.01,7.74,5.65-3.53,5.18-13.35,8.46-18.46,3.99l-17.24,6.78,13.73,15.14c1.17-1.5,4.86-3.02,3.57-5.11-.67-1.11-4.22-3.52-2.92-4.43,1.67-1.16,4.31-1.36,5.83-3.03.99.74,2.28,3.27,3.56,3.11,1.38-.17,7.66-5.06,9.48-6.02l-2.38,4.76c-.59.89-3.91,5.12-3.91,5.48.01.71,3.54,3.39,3.55,4.08,0,.42-3.54,5.94-4.17,6.85l-5.19-5.74-4.09,3.72,14.1,15.54,7.64-16.05c-3.39-4.73-1.68-11.88,1.74-16.14,6.96-8.68,6.03,5.05,8.53,5.53,1.39.28,4.92-4.12,6.32-5.01l37.48,41.31c.24.26-3.11,3.59-.5,6.84,1.36,1.68,3.66,1.03,4.1,1.44.79.75-.37,3.62,2.17,5.14,2.46,1.47,5.69-.72,5.98-.52l12.7,14.88c-6.88-.4-9.96,8.19-3.69,11.55-2,1.05-4.31,1.52-6.2,2.83-11.31,7.86-6.63,23.74,7.24,23.8-4.25,14.02,12.98,24.42,24.25,16.04.02.01.03.03.05.05.35-.25.73-.43,1.13-.57.61-1.65,2-2.81,3.62-2.81,2.18,0,3.95,2.08,3.95,4.67,0,.03,0,.07,0,.1.06.23.13.45.17.69.94.6,1.56,1.5,1.74,2.57,1.31-1.4,2.08-3.4,1.71-5.46,14.99,5.98,31.32-7.78,26.76-23.54,1.11-1.03,2.63-.09,4.13-.93,2.73-1.54,4.53-3.9,3.8-7.09ZM109.94,23.9l64.94,71.58-.81.75L109.13,24.65l.81-.75ZM112.58,76.62c-.51,2.97-4.51,8.33-5.37,11.66l-10.72-12.64c.28-.55,2.04.62,2.11.69l8.36,9.2-.21-2.63c-.45-.88-2.64-3.24-2.36-4.04.68-1.94,3.55-5.47,4.43-7.71,1.1,1.65,4.13,3.31,3.77,5.46ZM122.88,55.42l2.38-.66c.13.98-.11,3.67-1.49,2.47-1.82-1.58-2.11-3.67-5-1.76-3.88,2.56-3.82,6.4-6.08,8.83-.89.97-2.78,1.89-3.97,3.07l3.84-4.44-.16-.99c-1.33,1.13-2.55,2.41-3.89,3.53-.52.43-1.25,1.68-1.8.89,1.49-1.91,5.42-3.49,4.98-6.01l-3.64,2.56c.8-.86,4.98-6.37,4.92-6.8-.06-.38-2.25-2.73-2.51-2.78-.49-.07-3.48,2.21-4.05,2.84l-.33-1.18-2.46,2.22,1.31-2.67c-2.12,2.53-1.71.52-2.19.48-1.14-.1-1.81.94-2.62,1.63l.49-1.92-2.45,2.21-.11-1.75c-2.67,1.16-2.57-1.64-5-1.81l3.14,3.86c-4.83,1.43-8.3,6.5-12.14.59l1.04,2.78-2.97-3.27,8.05,11.34-10.03-11.05c0-.66,11.46-4.93,12.18-4.97,1.82-.14,4.46,1.41,6.97,1.42,4.21.02,10.42-2.47,13.2-5.63,2.47-2.82.36-3.22.38-4.09,0-.2,2.67-1.28,3.18-2.08l-1.65,2.95,3-1.62c.61.66-3.48,2.12-1.53,3.25l3.42-1.99-2.67,2.81,3.61-1.78-1.3,2.67,2.96-.84-1.89,2.84,1.77-.5c-.27,1.22-.63,2.14.03,3.32l2.25-1.65-.72,2.51,2.41-1.44-2.85,2.59ZM106.25,27.25l.82-.75,15.96,17.59.81-.74-15.96-17.59,1.38-.13,63.98,71.34-2.05,1.86L106.25,27.25ZM173.74,106.97c-.08.05.01.59-.43.76-2.01.84-2.94-2.72-.72-1.22-.2-1.74.18-2.22,1.29-3.45,1.84-2.04,8.56-9.32,10.7-5.94-3.72,3.07-7.09,6.86-10.84,9.84ZM189.53,103.82c-2.58,2.35-5.22,4.67-7.77,7.05-.36.34-.28,1.31-1.63,2.11-.88.52-2.2.54-3.19.36-1.18-2.79.74-.88.84-1.09.11-.6-.13-1.47.12-1.95.62-1.32,7.53-7.54,8.99-8.2,2.17-1,3.35,1.09,2.65,1.73ZM221.33,110.85c7.84-9.16,22.03-2.59,19.23,9.32-1.09-1.44-.13-3.17-.6-4.9-1.6-5.99-8.71-9.85-14.3-6.61-5.33,3.1-7,9.04-8.92,14.47-.2.35-.67-.15-.75-.42-.35-1.33,4.19-10.53,5.34-11.85ZM222.57,124.19c1.14-3.61,4.62-14.53,9.88-9.72,6.4,5.86-5.48,9.43-9.88,9.72ZM204.31,131.51c2.98-3.32,7.62-5.02,11.89-3.23,5.08,2.13,8.01,9.76,4.88,14.43-1.43,2.15-5.37,4.68-5.02,4.31-9.42,3.37-18.67-7.84-11.75-15.51ZM244.73,157.69c6.87,8.77-5.38,22.24-14.76,15.39-3.83-2.79-5.64-9.9-6.88-14.44-.27-1.02-2.59-11.13-1.86-11.23,5.86,2.41,19.62,5.35,23.49,10.29ZM214.87,170.35c-1.37,8.23-14.21,9.34-15.99.78-1.14-5.51,7.11-14.83,9.65-19.66,1.75,4.59,7.12,14.1,6.34,18.88ZM184.68,163.43c-4.09-2.66-6.28-6.79-5.3-11.62,1.79-8.75,10.22-9.37,17.19-11.86l.54.99c-6.96,1.51-17.76,4.69-17.08,13.64.48,6.38,5.59,9.26,11.46,9.35-1.11,1.69-5.56.33-6.82-.5ZM197.42,146.63c-.15,2.35-2.52,8.62-3.99,10.1-2.73,2.8-7.97.22-7.42-3.82.59-4.33,8.29-4.51,11.42-6.28ZM217.87,178.71c-5.01,5.53-14.83,7.35-20.74,2.13-11.68-10.34-.81-22.72,5.69-32.38.58.89-.26,1.45-.61,2.13-3.2,6.2-10.53,13.87-9.21,21.44,2.19,12.59,17.09,14.17,24.97,5.12.61-.71,1.4-2.85,1.57-2.85,1.58.22-.98,3.66-1.67,4.42ZM221.63,174.59c-2.79-4.24-6.6-17.81-7.2-23.03-.09-.85-.61-1.51.46-2.13,3.37,11.48,3.99,30.71,19.77,31.3,13.74.51,23.09-15.68,14.9-26.69-4.42-5.91-18.57-9.44-25.55-11.8l.26-1.35c10.83,4.53,28.68,7.13,29.26,21.94.64,16.97-22.56,25.96-31.91,11.74ZM226.12,135.52c4.95-2.06,16.55-10.31,21.64-7,8.07,5.27,2.82,16.93-6.2,14.85-1.97-.46-15.5-6.91-15.44-7.85ZM253.17,146.83c-.93.8-5.33,3.59-5.4,1.86,0-.14,1.87-.39,2.58-.89,8.36-5.75,10.27-16.25,2.3-23.22-8.32-7.29-18.84,1.39-26.8,4.57-.71.28-1.35,1.05-2.17.39,5.7-3.16,16.54-9.73,23.1-8.8,12.73,1.82,15.51,18.18,6.39,26.1Z"/>
        <path class="cls-1" d="M112.58,76.62c-.51,2.97-4.51,8.33-5.37,11.66l-10.72-12.64c.28-.55,2.04.62,2.11.69l8.36,9.2-.21-2.63c-.45-.88-2.64-3.24-2.36-4.04.68-1.94,3.55-5.47,4.43-7.71,1.1,1.65,4.13,3.31,3.77,5.46Z"/>
        <polygon class="cls-1" points="173.25 96.97 171.2 98.83 106.25 27.25 107.08 26.5 123.04 44.09 123.85 43.35 107.89 25.76 109.27 25.63 173.25 96.97"/>
        <path class="cls-1" d="M184.58,97.12c-3.72,3.07-7.09,6.86-10.84,9.84-.08.05.01.59-.43.76-2.01.84-2.94-2.72-.72-1.22-.2-1.74.18-2.22,1.29-3.45,1.84-2.04,8.56-9.32,10.7-5.94Z"/>
        <path class="cls-1" d="M189.53,103.82c-2.58,2.35-5.22,4.67-7.77,7.05-.36.34-.28,1.31-1.63,2.11-.88.52-2.2.54-3.19.36-1.18-2.79.74-.88.84-1.09.11-.6-.13-1.47.12-1.95.62-1.32,7.53-7.54,8.99-8.2,2.17-1,3.35,1.09,2.65,1.73Z"/>
        <path class="cls-1" d="M125.25,54.76c.13.98-.11,3.67-1.49,2.47-1.82-1.58-2.11-3.67-5-1.76-3.88,2.56-3.82,6.4-6.08,8.83-.89.97-2.78,1.89-3.97,3.07l3.84-4.44-.16-.99c-1.33,1.13-2.55,2.41-3.89,3.53-.52.43-1.25,1.68-1.8.89,1.49-1.91,5.42-3.49,4.98-6.01l-3.64,2.56c.8-.86,4.98-6.37,4.92-6.8-.06-.38-2.25-2.73-2.51-2.78-.49-.07-3.48,2.21-4.05,2.84l-.33-1.18-2.46,2.22,1.31-2.67c-2.12,2.53-1.71.52-2.19.48-1.14-.1-1.81.94-2.62,1.63l.49-1.92-2.45,2.21-.11-1.75c-2.67,1.16-2.57-1.64-5-1.81l3.14,3.86c-4.83,1.43-8.3,6.5-12.14.59l1.04,2.78-2.97-3.27,8.05,11.34-10.03-11.05c0-.66,11.46-4.93,12.18-4.97,1.82-.14,4.46,1.41,6.97,1.42,4.21.02,10.42-2.47,13.2-5.63,2.47-2.82.36-3.22.38-4.09,0-.2,2.67-1.28,3.18-2.08l-1.65,2.95,3-1.62c.61.66-3.48,2.12-1.53,3.25l3.42-1.99-2.67,2.81,3.61-1.78-1.3,2.67,2.96-.84-1.89,2.84,1.77-.5c-.27,1.22-.63,2.14.03,3.32l2.25-1.65-.72,2.51,2.41-1.44-2.85,2.59,2.38-.66Z"/>
      </g>
      <ellipse class="cls-1" cx="221.89" cy="184.19" rx="5.63" ry="5.77" transform="translate(-6.36 7.95) rotate(-2.02)"/>
    </g>
  </g>
  <g>
    <path class="cls-1" d="M99.33,239.55h2.17l5.13,13.33h-1.81l-1.11-2.91h-6.59l-1.11,2.91h-1.81l5.14-13.33ZM103.11,248.39l-2.69-7.09-2.71,7.09h5.39Z"/>
    <path class="cls-1" d="M116.33,239.55c.65,0,1.24.09,1.77.26.53.17.99.42,1.36.74.38.32.67.7.88,1.14.21.44.31.95.31,1.5,0,.72-.17,1.32-.51,1.8-.34.48-.82.85-1.44,1.1.8.2,1.42.56,1.87,1.08.45.52.68,1.19.68,2.03,0,.56-.1,1.06-.31,1.52-.21.46-.5.85-.88,1.16-.38.32-.83.56-1.36.74-.53.17-1.12.26-1.77.26h-5.91v-13.33h5.31ZM116.05,245.5c.86,0,1.55-.2,2.05-.61.5-.4.76-.95.76-1.62s-.25-1.2-.76-1.57-1.19-.56-2.05-.56h-3.34v4.36h3.34ZM116.65,251.3c.86,0,1.55-.19,2.05-.58.5-.38.76-.93.76-1.63s-.25-1.23-.76-1.61c-.5-.38-1.19-.58-2.05-.58h-3.94v4.4h3.94Z"/>
    <path class="cls-1" d="M125.23,246.22c0-.94.18-1.83.54-2.67.36-.84.85-1.57,1.47-2.19.62-.62,1.35-1.11,2.19-1.47s1.72-.54,2.67-.54,1.85.18,2.68.54,1.56.85,2.18,1.47c.62.62,1.11,1.35,1.47,2.19s.54,1.73.54,2.67-.18,1.85-.54,2.68-.85,1.56-1.47,2.18c-.62.62-1.35,1.12-2.18,1.47-.83.36-1.72.54-2.68.54s-1.83-.18-2.67-.54c-.84-.36-1.57-.85-2.19-1.47-.62-.62-1.11-1.35-1.47-2.18-.36-.83-.54-1.72-.54-2.68ZM127.02,246.22c0,.7.13,1.37.4,2,.27.63.63,1.18,1.09,1.65.46.47,1,.84,1.62,1.12.62.27,1.27.41,1.96.41s1.36-.14,1.97-.41c.61-.27,1.15-.64,1.61-1.12.46-.47.83-1.02,1.09-1.65.27-.63.4-1.3.4-2s-.13-1.37-.4-2c-.27-.63-.63-1.18-1.09-1.65-.46-.47-1-.84-1.61-1.11-.61-.27-1.27-.41-1.97-.41s-1.34.14-1.96.41c-.62.27-1.16.64-1.62,1.11-.46.47-.83,1.02-1.09,1.65-.27.63-.4,1.3-.4,2Z"/>
    <path class="cls-1" d="M149.63,253.09c-1,0-1.9-.16-2.72-.49-.82-.32-1.52-.79-2.11-1.38s-1.05-1.32-1.37-2.17c-.33-.85-.49-1.79-.49-2.83,0-.96.16-1.85.47-2.68.31-.83.76-1.56,1.34-2.18.58-.62,1.29-1.11,2.13-1.47s1.77-.54,2.81-.54c.73,0,1.42.09,2.06.28.64.19,1.23.46,1.75.82.52.36.98.8,1.36,1.31s.68,1.11.9,1.77h-1.99c-.32-.8-.85-1.41-1.6-1.84-.75-.43-1.6-.65-2.56-.65-.77,0-1.46.14-2.06.41-.6.27-1.11.64-1.53,1.1-.42.46-.74,1.01-.96,1.64-.22.63-.33,1.3-.33,2.02,0,.78.12,1.49.37,2.13.25.64.59,1.18,1.03,1.63.44.45.99.8,1.62,1.04.64.25,1.34.37,2.11.37.5,0,.98-.05,1.42-.15.44-.1.85-.24,1.22-.42.37-.18.69-.4.96-.66s.48-.54.63-.85v-1.87h-3.6v-1.49h5.29v6.93h-1.69v-1.41c-.53.5-1.17.9-1.92,1.18-.75.29-1.6.43-2.56.43Z"/>
    <path class="cls-1" d="M164.91,239.55h2.17l5.13,13.33h-1.81l-1.11-2.91h-6.59l-1.11,2.91h-1.81l5.14-13.33ZM168.7,248.39l-2.69-7.09-2.71,7.09h5.39Z"/>
    <path class="cls-1" d="M176.6,252.89v-13.33h4.68c1.04,0,1.97.16,2.82.48.84.32,1.57.77,2.17,1.35.6.58,1.07,1.28,1.39,2.1s.49,1.73.49,2.74-.16,1.92-.49,2.75c-.33.82-.79,1.52-1.39,2.1-.6.58-1.33,1.03-2.17,1.34-.84.32-1.78.48-2.82.48h-4.68ZM178.29,251.3h2.99c.77,0,1.47-.12,2.09-.35s1.16-.57,1.6-1c.44-.44.79-.97,1.02-1.6s.36-1.34.36-2.12-.12-1.49-.36-2.12-.58-1.16-1.02-1.6c-.44-.44-.98-.77-1.6-1s-1.32-.35-2.09-.35h-2.99v10.15Z"/>
    <path class="cls-1" d="M196.26,239.55h2.17l5.13,13.33h-1.81l-1.11-2.91h-6.59l-1.11,2.91h-1.81l5.14-13.33ZM200.04,248.39l-2.69-7.09-2.71,7.09h5.39Z"/>
  </g>
</svg>