<?xml version="1.0" encoding="UTF-8"?>
<svg id="Capa_1" data-name="Capa 1" xmlns="http://www.w3.org/2000/svg" viewBox="0 0 500 200">
  <defs>
    <style>
      .cls-1 {
        fill: #fff;
      }
    </style>
  </defs>
  <g>
    <path class="cls-1" d="M91.72,125.39c-3.18-3.98-4.77-9.2-4.77-15.65,0-2.94.24-5.55.71-7.82,1.04-5.5,3.03-10.48,5.97-14.93,2.94-4.46,6.49-7.97,10.67-10.52,4.17-2.56,8.58-3.84,13.23-3.84,5.88,0,10.43,1.97,13.65,5.9,3.22,3.94,4.84,9.03,4.84,15.29,0,2.66-.28,5.36-.85,8.11-1.14,5.78-3.27,10.93-6.4,15.43-3.13,4.5-6.81,7.97-11.02,10.38-4.22,2.42-8.51,3.63-12.87,3.63-5.6,0-9.98-1.99-13.16-5.97ZM120.66,122.55c3.22-3.51,5.41-8.3,6.54-14.37.47-2.28.71-5.02.71-8.25,0-6.54-1.26-12.16-3.77-16.85-2.51-4.69-6.09-7.04-10.74-7.04-4.08,0-7.75,1.8-11.02,5.41-3.27,3.6-5.52,8.39-6.76,14.37-.57,2.66-.85,5.5-.85,8.53,0,6.45,1.33,11.97,3.98,16.57,2.65,4.6,6.35,6.9,11.09,6.9,3.98,0,7.59-1.75,10.81-5.26Z"/>
    <path class="cls-1" d="M119.52,166.92c-1.52-1.04-2.28-2.32-2.28-3.84,0-1.42.48-2.63,1.42-3.63.95-1,2.18-1.49,3.7-1.49,1.42,0,2.47.38,3.13,1.14.66.76,1.23,1.85,1.71,3.27.38,1.23.78,2.13,1.21,2.7.43.57,1.12.85,2.06.85,1.14,0,2.11-.74,2.92-2.2.81-1.47,1.64-4.29,2.49-8.46.85-4.17,1.9-10.57,3.13-19.2l7.25-50.21c.19-1.9.28-3.13.28-3.7,0-1.8-.52-2.94-1.57-3.41-1.04-.47-3.22-.71-6.54-.71-.28,0-.43-.24-.43-.71,0-.19.07-.4.21-.64.14-.24.26-.36.36-.36,3.32,0,5.74-.5,7.25-1.49,1.52-1,2.42-2.63,2.7-4.91,1.99-12.61,4.15-22.07,6.47-28.38,2.32-6.31,4.79-10.45,7.4-12.45,2.61-1.99,5.81-2.99,9.6-2.99,2.56,0,4.55.5,5.97,1.49,1.42,1,2.13,2.3,2.13,3.91s-.43,2.87-1.28,3.77c-.85.9-2.04,1.35-3.56,1.35-1.61,0-2.7-.43-3.27-1.28-.57-.85-.95-2.08-1.14-3.7-.19-1.14-.43-1.99-.71-2.56-.28-.57-.85-.85-1.71-.85-2.37,0-4.48,3.13-6.33,9.39-1.85,6.26-3.72,16.03-5.62,29.3l-9.53,65.43c-1.33,9.2-2.87,16.38-4.62,21.55-1.76,5.17-3.89,8.89-6.4,11.17-2.51,2.28-5.76,3.41-9.74,3.41-2.94,0-5.17-.52-6.69-1.56ZM160.2,79.88c-3.13-.47-6.35-.71-9.67-.71l.28-3.27c2.75,0,7.92-.24,15.5-.71,1.71-.19,2.89-.28,3.56-.28s1,.33,1,1c0,.76-.57,1.8-1.71,3.13-1.14,1.33-2.18,1.9-3.13,1.71-.76-.09-2.7-.38-5.83-.85Z"/>
    <path class="cls-1" d="M174.57,129.16c-.85-1-1.28-2.63-1.28-4.91,0-1.42.33-3.93,1-7.54l5.83-29.58c.28-1.42.43-2.7.43-3.84,0-1.42-.26-2.54-.78-3.34-.52-.8-1.21-1.21-2.06-1.21-1.14,0-2.58.57-4.34,1.71-1.76,1.14-3.58,2.75-5.48,4.84-.1.1-.24.14-.43.14-.28,0-.55-.16-.78-.5-.24-.33-.21-.59.07-.78,3.32-3.79,6.31-6.57,8.96-8.32,2.65-1.75,5.17-2.63,7.54-2.63,1.71,0,2.96.48,3.77,1.42.8.95,1.21,2.51,1.21,4.69,0,1.33-.33,3.84-1,7.54l-5.69,29.87c-.28,1.52-.43,2.8-.43,3.84,0,2.94.9,4.41,2.7,4.41,2.28,0,5.5-2.08,9.67-6.26.19-.19.38-.28.57-.28.28,0,.52.17.71.5.19.33.14.64-.14.92-3.22,3.7-6.12,6.42-8.68,8.18-2.56,1.75-5.07,2.63-7.54,2.63-1.71,0-2.99-.5-3.84-1.49ZM182.89,62.24c-.52-.19-.69-.38-.5-.57l13.23-34.14c.19-.47,1.21-.95,3.06-1.42,1.85-.47,3.44-.71,4.76-.71.95,0,1.37.19,1.28.57l-20.91,36.13c-.1.28-.4.33-.92.14Z"/>
    <path class="cls-1" d="M193.06,120.7c0-.76.09-2.18.28-4.27.95-6.73,3.46-13.51,7.54-20.34,4.08-6.83,8.87-12.45,14.37-16.85,5.5-4.41,10.67-6.61,15.5-6.61,2.94,0,5.55.83,7.82,2.49,2.28,1.66,3.56,4.1,3.84,7.32l-6.12-3.84c1.33-.19,2.75-1,4.27-2.42,1.52-1.42,2.51-2.99,2.99-4.69.09-.28.43-.38,1-.28.57.1.8.24.71.43l-8.25,45.09c-.28,1.52-.43,2.84-.43,3.98,0,2.84.85,4.27,2.56,4.27,2.08,0,5.21-2.18,9.39-6.54.09-.09.24-.14.43-.14.28,0,.52.17.71.5.19.33.19.59,0,.78-3.22,3.7-6.09,6.47-8.61,8.32-2.51,1.85-4.96,2.77-7.33,2.77-1.61,0-2.82-.5-3.63-1.49-.81-1-1.21-2.63-1.21-4.91,0-1.9.28-4.41.85-7.54l3.41-19.91,2.42-2.42c-4.27,10.91-9.53,19.77-15.79,26.6-6.26,6.83-12.23,10.24-17.92,10.24s-8.82-3.51-8.82-10.53ZM217.88,118.99c3.84-3.51,7.28-7.94,10.31-13.3,3.03-5.36,5.07-10.6,6.12-15.72.28-1.14.43-2.28.43-3.41,0-2.75-.76-4.93-2.28-6.54-1.52-1.61-3.7-2.42-6.54-2.42-3.32.1-6.71,1.59-10.17,4.48-3.46,2.89-6.5,6.8-9.1,11.73-2.61,4.93-4.39,10.34-5.33,16.21-.28,2.09-.43,3.98-.43,5.69,0,2.84.5,4.98,1.49,6.4,1,1.42,2.54,2.13,4.62,2.13,3.41,0,7.04-1.75,10.88-5.26Z"/>
  </g>
  <g>
    <g>
      <path class="cls-1" d="M358.66,125.39c-3.18-3.98-4.77-9.2-4.77-15.65,0-2.94.24-5.55.71-7.82,1.04-5.5,3.03-10.48,5.97-14.93,2.94-4.46,6.49-7.97,10.67-10.52,4.17-2.56,8.58-3.84,13.23-3.84,5.88,0,10.43,1.97,13.65,5.9,3.22,3.94,4.84,9.03,4.84,15.29,0,2.66-.28,5.36-.85,8.11-1.14,5.78-3.27,10.93-6.4,15.43-3.13,4.5-6.81,7.97-11.02,10.38-4.22,2.42-8.51,3.63-12.87,3.63-5.6,0-9.98-1.99-13.16-5.97ZM387.6,122.54c3.22-3.51,5.41-8.3,6.54-14.37.47-2.28.71-5.02.71-8.25,0-6.54-1.26-12.16-3.77-16.85-2.51-4.69-6.09-7.04-10.74-7.04-4.08,0-7.75,1.8-11.02,5.41-3.27,3.6-5.52,8.39-6.76,14.37-.57,2.66-.85,5.5-.85,8.53,0,6.45,1.33,11.97,3.98,16.57,2.65,4.6,6.35,6.9,11.09,6.9,3.98,0,7.59-1.75,10.81-5.26Z"/>
      <path class="cls-1" d="M412,129.16c-.81-1-1.21-2.68-1.21-5.05,0-1.99.28-4.46.85-7.4l14.08-75.38c.19-.76.28-1.8.28-3.13,0-2.37-.95-3.56-2.84-3.56-1.52,0-3.79.71-6.83,2.13h-.28c-.38,0-.64-.24-.78-.71-.14-.47-.02-.76.36-.85l18.35-8.96h.28c.38,0,.71.14,1,.43.28.28.38.52.28.71l-16.5,89.32c-.28,1.42-.43,2.7-.43,3.84,0,1.42.24,2.51.71,3.27.47.76,1.14,1.14,1.99,1.14,2.08,0,5.21-2.18,9.39-6.54.19-.19.38-.28.57-.28.28,0,.52.17.71.5.19.33.14.64-.14.92-3.22,3.79-6.09,6.59-8.61,8.39-2.51,1.8-4.96,2.7-7.33,2.7-1.8,0-3.11-.5-3.91-1.49Z"/>
      <path class="cls-1" d="M435.82,120.7c0-.76.09-2.18.28-4.27.95-6.73,3.46-13.51,7.54-20.34,4.08-6.83,8.87-12.45,14.37-16.85,5.5-4.41,10.67-6.61,15.5-6.61,2.94,0,5.55.83,7.82,2.49,2.28,1.66,3.56,4.1,3.84,7.32l-6.12-3.84c1.33-.19,2.75-1,4.27-2.42,1.52-1.42,2.51-2.99,2.99-4.69.09-.28.43-.38,1-.28.57.1.8.24.71.43l-8.25,45.09c-.28,1.52-.43,2.84-.43,3.98,0,2.84.85,4.27,2.56,4.27,2.08,0,5.21-2.18,9.39-6.54.09-.09.24-.14.43-.14.28,0,.52.17.71.5.19.33.19.59,0,.78-3.22,3.7-6.09,6.47-8.61,8.32-2.51,1.85-4.96,2.77-7.33,2.77-1.61,0-2.82-.5-3.63-1.49-.81-1-1.21-2.63-1.21-4.91,0-1.9.28-4.41.85-7.54l3.41-19.91,2.42-2.42c-4.27,10.91-9.53,19.77-15.79,26.6-6.26,6.83-12.23,10.24-17.92,10.24s-8.82-3.51-8.82-10.53ZM460.64,118.99c3.84-3.51,7.28-7.94,10.31-13.3,3.03-5.36,5.07-10.6,6.12-15.72.28-1.14.43-2.28.43-3.41,0-2.75-.76-4.93-2.28-6.54-1.52-1.61-3.7-2.42-6.54-2.42-3.32.1-6.71,1.59-10.17,4.48-3.46,2.89-6.5,6.8-9.1,11.73-2.61,4.93-4.39,10.34-5.33,16.21-.28,2.09-.43,3.98-.43,5.69,0,2.84.5,4.98,1.49,6.4,1,1.42,2.54,2.13,4.62,2.13,3.41,0,7.04-1.75,10.88-5.26Z"/>
    </g>
    <path class="cls-1" d="M359.76,50.44c1.76-2.64,3.06-5.12,3.89-7.43.83-2.31,1.25-4.68,1.25-7.08s-.41-4.75-1.22-6.74c-.81-1.99-1.98-3.7-3.51-5.14-1.53-1.43-3.39-2.54-5.59-3.3-2.2-.76-4.67-1.15-7.4-1.15-3.24,0-6.19.53-8.86,1.6-2.66,1.07-4.93,2.57-6.81,4.51-1.88,1.94-3.32,4.28-4.34,7.01-1.02,2.73-1.53,5.76-1.53,9.1s.46,6.59,1.39,9.76c.93,3.17,2.08,6.32,3.47,9.45,1.39,3.13,2.9,6.22,4.55,9.27,1.64,3.06,3.16,6.11,4.55,9.17,1.39,3.06,2.55,6.14,3.47,9.24.93,3.1,1.39,6.25,1.39,9.45s-.51,6.33-1.53,9.27c-1.02,2.94-2.44,5.64-4.27,8.09-1.83,2.45-3.99,4.68-6.49,6.67-2.5,1.99-5.22,3.68-8.16,5.07-2.94,1.39-6.05,2.45-9.34,3.19-3.29.74-6.62,1.11-10,1.11-5.14,0-9.65-.81-13.54-2.43-3.89-1.62-7.15-3.77-9.79-6.46-2.64-2.68-4.62-5.78-5.94-9.27-1.32-3.5-1.98-7.12-1.98-10.87,0-2.36.25-4.63.76-6.81.51-2.18,1.22-4.1,2.12-5.76.9-1.67,1.97-2.99,3.19-3.96,1.23-.97,2.56-1.46,3.99-1.46,1.25,0,2.23.35,2.95,1.04.72.69,1.08,1.64,1.08,2.85,0,.97-.24,1.77-.73,2.4-.49.62-1.08,1.15-1.77,1.56-.69.42-1.44.76-2.22,1.04-.79.28-1.48.56-2.08.83-1.2.56-2.21,1.5-3.02,2.85-.81,1.34-1.22,3.43-1.22,6.25s.53,5.79,1.6,8.75c1.06,2.96,2.7,5.65,4.9,8.06,2.2,2.41,4.99,4.36,8.37,5.87,3.38,1.51,7.38,2.26,12.01,2.26,4.03,0,7.84-.61,11.42-1.84,3.59-1.23,6.74-3.03,9.45-5.42,2.71-2.38,4.85-5.37,6.42-8.96,1.57-3.59,2.36-7.74,2.36-12.47,0-3.56-.43-6.85-1.28-9.86-.86-3.01-1.92-5.88-3.19-8.61-1.27-2.73-2.66-5.38-4.17-7.95-1.51-2.57-2.89-5.2-4.17-7.88-1.27-2.68-2.34-5.47-3.19-8.37-.86-2.89-1.28-6.05-1.28-9.48,0-4.35.75-8.37,2.26-12.05,1.5-3.68,3.65-6.86,6.42-9.55,2.78-2.68,6.12-4.78,10.04-6.29,3.91-1.5,8.28-2.26,13.09-2.26,3.47,0,6.61.41,9.41,1.22,2.8.81,5.18,1.98,7.15,3.51,1.97,1.53,3.47,3.38,4.51,5.56,1.04,2.18,1.56,4.63,1.56,7.36,0,3.01-.65,5.85-1.94,8.51-1.3,2.66-3.33,5.36-6.11,8.09l-2.36-1.11Z"/>
  </g>
  <path class="cls-1" d="M93.75,50.44c1.76-2.64,3.06-5.12,3.89-7.43.83-2.31,1.25-4.68,1.25-7.08s-.41-4.75-1.22-6.74c-.81-1.99-1.98-3.7-3.51-5.14-1.53-1.43-3.39-2.54-5.59-3.3-2.2-.76-4.67-1.15-7.4-1.15-3.24,0-6.19.53-8.86,1.6-2.66,1.07-4.93,2.57-6.81,4.51-1.88,1.94-3.32,4.28-4.34,7.01-1.02,2.73-1.53,5.76-1.53,9.1s.46,6.59,1.39,9.76c.93,3.17,2.08,6.32,3.47,9.45,1.39,3.13,2.9,6.22,4.55,9.27,1.64,3.06,3.16,6.11,4.55,9.17,1.39,3.06,2.55,6.14,3.47,9.24.93,3.1,1.39,6.25,1.39,9.45s-.51,6.33-1.53,9.27c-1.02,2.94-2.44,5.64-4.27,8.09-1.83,2.45-3.99,4.68-6.49,6.67-2.5,1.99-5.22,3.68-8.16,5.07-2.94,1.39-6.05,2.45-9.34,3.19-3.29.74-6.62,1.11-10,1.11-5.14,0-9.65-.81-13.54-2.43-3.89-1.62-7.15-3.77-9.79-6.46-2.64-2.68-4.62-5.78-5.94-9.27-1.32-3.5-1.98-7.12-1.98-10.87,0-2.36.25-4.63.76-6.81.51-2.18,1.22-4.1,2.12-5.76.9-1.67,1.97-2.99,3.19-3.96,1.23-.97,2.56-1.46,3.99-1.46,1.25,0,2.23.35,2.95,1.04.72.69,1.08,1.64,1.08,2.85,0,.97-.24,1.77-.73,2.4-.49.62-1.08,1.15-1.77,1.56-.69.42-1.44.76-2.22,1.04-.79.28-1.48.56-2.08.83-1.2.56-2.21,1.5-3.02,2.85-.81,1.34-1.22,3.43-1.22,6.25s.53,5.79,1.6,8.75c1.06,2.96,2.7,5.65,4.9,8.06,2.2,2.41,4.99,4.36,8.37,5.87,3.38,1.51,7.38,2.26,12.01,2.26,4.03,0,7.84-.61,11.42-1.84,3.59-1.23,6.74-3.03,9.45-5.42,2.71-2.38,4.85-5.37,6.42-8.96,1.57-3.59,2.36-7.74,2.36-12.47,0-3.56-.43-6.85-1.28-9.86-.86-3.01-1.92-5.88-3.19-8.61-1.27-2.73-2.66-5.38-4.17-7.95-1.51-2.57-2.89-5.2-4.17-7.88-1.27-2.68-2.34-5.47-3.19-8.37-.86-2.89-1.28-6.05-1.28-9.48,0-4.35.75-8.37,2.26-12.05,1.5-3.68,3.65-6.86,6.42-9.55,2.78-2.68,6.12-4.78,10.04-6.29,3.91-1.5,8.28-2.26,13.09-2.26,3.47,0,6.61.41,9.41,1.22,2.8.81,5.18,1.98,7.15,3.51,1.97,1.53,3.47,3.38,4.51,5.56,1.04,2.18,1.56,4.63,1.56,7.36,0,3.01-.65,5.85-1.94,8.51-1.3,2.66-3.33,5.36-6.11,8.09l-2.36-1.11Z"/>
</svg>