<?xml version="1.0" encoding="UTF-8"?>
<svg id="Capa_1" data-name="Capa 1" xmlns="http://www.w3.org/2000/svg" viewBox="0 0 297.76 272.05">
  <defs>
    <style>
      .cls-1 {
        fill: #d6ccc4;
      }
    </style>
  </defs>
  <g>
    <path class="cls-1" d="M205.17,226.29c1-1.07,2.83-1.37,4.17-1,1.55.43,2.6,1.61,3.09,3.1.06.18.09.38.14.56,0-.04,0-.08,0-.12,0-3.01-2.06-5.44-4.61-5.44-1.89,0-3.51,1.35-4.22,3.27.46-.17.93-.3,1.42-.37Z"/>
    <path class="cls-1" d="M257.28,189.58c-.99-4.37-3.47-4.11-6.7-6.03,10.88-12.09.53-33.04-15.89-29.97.05-7.68-3.6-15.1-11.72-16.75-9.36-1.91-15.65,4.52-19.08,12.52-4.23-7-12.31-4.44-13.81,2.96-3.49-3.63-6.7-7.6-10.19-11.24-1.47-1.53-4.15-2.76-5.18-4.68-.32-.57,3.57-6.41-1.87-9.57-.85-.49-2.24-.04-2.73-.42-.87-.67.39-4.22-3.8-6.23-3.04-1.47-5.98,1.29-6.19,1.05L83.03,36.28l-10.96,9.95,7.79,8.6-6.93,6.28c-2.1,1.9,8.95,5.85,9.03,6.6-4.11,6.04-15.57,9.88-21.54,4.66l-20.12,7.91,16.02,17.66c1.37-1.75,5.67-3.52,4.17-5.96-.79-1.29-4.93-4.1-3.41-5.17,1.95-1.36,5.03-1.58,6.8-3.53,1.15.86,2.66,3.81,4.15,3.63,1.61-.2,8.94-5.9,11.07-7.03l-2.77,5.56c-.68,1.04-4.56,5.98-4.56,6.39.01.82,4.13,3.95,4.14,4.76,0,.49-4.13,6.93-4.86,7.99l-6.05-6.7-4.77,4.34,16.45,18.13,8.91-18.73c-3.95-5.52-1.96-13.86,2.03-18.83,8.12-10.13,7.04,5.89,9.95,6.46,1.62.33,5.74-4.81,7.37-5.85l43.73,48.2c.28.3-3.63,4.19-.58,7.98,1.58,1.96,4.27,1.2,4.79,1.68.92.87-.43,4.23,2.53,6,2.87,1.71,6.63-.84,6.98-.61l14.81,17.36c-8.03-.47-11.62,9.56-4.3,13.47-2.33,1.23-5.03,1.77-7.23,3.3-13.19,9.17-7.74,27.7,8.44,27.77-4.96,16.36,15.14,28.49,28.3,18.71.02.02.04.04.06.06.41-.29.85-.5,1.31-.67.71-1.93,2.33-3.27,4.22-3.27,2.54,0,4.61,2.43,4.61,5.44,0,.04,0,.08,0,.12.07.27.15.53.2.81,1.09.7,1.82,1.76,2.03,3,1.53-1.64,2.43-3.96,1.99-6.37,17.48,6.98,36.54-9.08,31.22-27.46,1.29-1.2,3.06-.1,4.82-1.09,3.19-1.8,5.28-4.55,4.43-8.27ZM79.56,42.04l75.76,83.51-.95.87L78.61,42.91l.95-.87ZM82.63,103.55c-.6,3.47-5.27,9.72-6.27,13.6l-12.51-14.75c.33-.65,2.38.72,2.46.81l9.75,10.74-.24-3.06c-.52-1.03-3.08-3.79-2.75-4.71.8-2.27,4.14-6.38,5.17-8.99,1.28,1.92,4.82,3.86,4.39,6.37ZM94.65,78.81l2.77-.77c.15,1.14-.13,4.28-1.73,2.89-2.13-1.85-2.46-4.28-5.84-2.05-4.53,2.99-4.46,7.47-7.09,10.31-1.04,1.13-3.24,2.2-4.63,3.58l4.48-5.18-.19-1.15c-1.56,1.32-2.98,2.81-4.53,4.11-.61.51-1.46,1.96-2.1,1.04,1.73-2.23,6.32-4.08,5.81-7.01l-4.24,2.99c.94-1,5.81-7.43,5.74-7.94-.08-.44-2.62-3.19-2.92-3.24-.57-.08-4.06,2.58-4.72,3.32l-.38-1.38-2.87,2.6,1.53-3.11c-2.47,2.95-2,.61-2.56.56-1.33-.11-2.11,1.1-3.05,1.9l.57-2.24-2.86,2.58-.13-2.04c-3.11,1.35-3-1.91-5.84-2.11l3.66,4.51c-5.63,1.67-9.69,7.58-14.17.68l1.22,3.24-3.47-3.81,9.39,13.23-11.7-12.89c0-.77,13.37-5.75,14.21-5.8,2.13-.16,5.2,1.65,8.13,1.66,4.91.03,12.15-2.89,15.4-6.57,2.89-3.29.42-3.76.44-4.77,0-.23,3.11-1.49,3.71-2.43l-1.92,3.44,3.49-1.89c.71.77-4.06,2.47-1.79,3.79l3.99-2.32-3.11,3.28,4.22-2.08-1.52,3.11,3.46-.97-2.2,3.32,2.06-.58c-.32,1.42-.73,2.49.04,3.87l2.62-1.93-.84,2.92,2.81-1.68-3.33,3.03ZM75.25,45.94l.96-.87,18.62,20.52.95-.86-18.62-20.52,1.61-.15,74.65,83.23-2.39,2.16L75.25,45.94ZM153.99,138.94c-.09.06.01.68-.51.89-2.34.97-3.43-3.18-.84-1.42-.23-2.03.22-2.6,1.51-4.03,2.15-2.38,9.99-10.88,12.48-6.93-4.34,3.58-8.27,8-12.65,11.48ZM172.41,135.27c-3.01,2.75-6.09,5.44-9.06,8.23-.42.39-.33,1.53-1.9,2.46-1.03.61-2.57.63-3.72.42-1.38-3.25.86-1.03.97-1.27.13-.7-.15-1.71.14-2.28.72-1.54,8.79-8.8,10.48-9.57,2.53-1.16,3.91,1.27,3.09,2.01ZM209.51,143.48c9.14-10.69,25.7-3.03,22.43,10.88-1.27-1.68-.15-3.7-.7-5.72-1.86-6.99-10.17-11.5-16.69-7.71-6.22,3.62-8.17,10.55-10.41,16.88-.23.4-.79-.18-.87-.49-.41-1.56,4.89-12.28,6.23-13.83ZM210.95,159.04c1.33-4.22,5.39-16.95,11.52-11.34,7.47,6.84-6.39,11-11.52,11.34ZM189.66,167.58c3.48-3.87,8.89-5.86,13.88-3.77,5.93,2.48,9.34,11.38,5.7,16.84-1.67,2.51-6.27,5.46-5.86,5.03-10.99,3.94-21.78-9.14-13.71-18.09ZM236.8,198.12c8.01,10.23-6.28,25.94-17.22,17.95-4.47-3.25-6.58-11.55-8.03-16.85-.32-1.19-3.03-12.99-2.16-13.1,6.84,2.81,22.89,6.24,27.41,12ZM201.97,212.9c-1.6,9.6-16.57,10.9-18.65.91-1.33-6.43,8.29-17.31,11.26-22.94,2.04,5.36,8.31,16.45,7.39,22.03ZM166.75,204.82c-4.77-3.1-7.33-7.93-6.18-13.56,2.09-10.2,11.93-10.93,20.05-13.84l.63,1.15c-8.12,1.76-20.73,5.47-19.93,15.91.56,7.44,6.52,10.8,13.37,10.91-1.29,1.98-6.48.38-7.95-.58ZM181.62,185.22c-.18,2.75-2.94,10.05-4.66,11.79-3.19,3.27-9.29.25-8.66-4.46.68-5.05,9.67-5.27,13.32-7.33ZM205.47,222.65c-5.85,6.46-17.31,8.57-24.19,2.48-13.62-12.07-.95-26.51,6.63-37.78.67,1.04-.3,1.7-.71,2.48-3.73,7.23-12.28,16.18-10.75,25.02,2.56,14.69,19.94,16.53,29.13,5.98.71-.82,1.63-3.33,1.84-3.33,1.85.25-1.14,4.27-1.95,5.15ZM209.86,217.83c-3.25-4.95-7.7-20.78-8.39-26.87-.1-.99-.71-1.76.53-2.48,3.94,13.4,4.66,35.83,23.07,36.51,16.03.59,26.94-18.29,17.38-31.13-5.15-6.9-21.66-11.01-29.8-13.76l.3-1.57c12.64,5.28,33.46,8.32,34.13,25.6.75,19.8-26.32,30.28-37.22,13.7ZM215.1,172.26c5.77-2.41,19.31-12.03,25.25-8.17,9.42,6.15,3.29,19.75-7.23,17.32-2.3-.53-18.08-8.07-18.02-9.15ZM246.65,185.45c-1.09.94-6.22,4.19-6.31,2.16,0-.16,2.18-.46,3.01-1.04,9.75-6.71,11.98-18.95,2.68-27.09-9.71-8.51-21.98,1.62-31.27,5.33-.82.33-1.57,1.23-2.53.46,6.65-3.68,19.29-11.36,26.95-10.27,14.85,2.13,18.09,21.21,7.46,30.45Z"/>
    <path class="cls-1" d="M82.63,103.55c-.6,3.47-5.27,9.72-6.27,13.6l-12.51-14.75c.33-.65,2.38.72,2.46.81l9.75,10.74-.24-3.06c-.52-1.03-3.08-3.79-2.75-4.71.8-2.27,4.14-6.38,5.17-8.99,1.28,1.92,4.82,3.86,4.39,6.37Z"/>
    <polygon class="cls-1" points="153.42 127.28 151.03 129.45 75.25 45.94 76.22 45.07 94.84 65.59 95.79 64.73 77.16 44.2 78.77 44.05 153.42 127.28"/>
    <path class="cls-1" d="M166.64,127.46c-4.34,3.58-8.27,8-12.65,11.48-.09.06.01.68-.51.89-2.34.97-3.43-3.18-.84-1.42-.23-2.03.22-2.6,1.51-4.03,2.15-2.38,9.99-10.88,12.48-6.93Z"/>
    <path class="cls-1" d="M172.41,135.27c-3.01,2.75-6.09,5.44-9.06,8.23-.42.39-.33,1.53-1.9,2.46-1.03.61-2.57.63-3.72.42-1.38-3.25.86-1.03.97-1.27.13-.7-.15-1.71.14-2.28.72-1.54,8.79-8.8,10.48-9.57,2.53-1.16,3.91,1.27,3.09,2.01Z"/>
    <path class="cls-1" d="M97.42,78.03c.15,1.14-.13,4.28-1.73,2.89-2.13-1.85-2.46-4.28-5.84-2.05-4.53,2.99-4.46,7.47-7.09,10.31-1.04,1.13-3.24,2.2-4.63,3.58l4.48-5.18-.19-1.15c-1.56,1.32-2.98,2.81-4.53,4.11-.61.51-1.46,1.96-2.1,1.04,1.73-2.23,6.32-4.08,5.81-7.01l-4.24,2.99c.94-1,5.81-7.43,5.74-7.94-.08-.44-2.62-3.19-2.92-3.24-.57-.08-4.06,2.58-4.72,3.32l-.38-1.38-2.87,2.6,1.53-3.11c-2.47,2.95-2,.61-2.56.56-1.33-.11-2.11,1.1-3.05,1.9l.57-2.24-2.86,2.58-.13-2.04c-3.11,1.35-3-1.91-5.84-2.11l3.66,4.51c-5.63,1.67-9.69,7.58-14.17.68l1.22,3.24-3.47-3.81,9.39,13.23-11.7-12.89c0-.77,13.37-5.75,14.21-5.8,2.13-.16,5.2,1.65,8.13,1.66,4.91.03,12.15-2.89,15.4-6.57,2.89-3.29.42-3.76.44-4.77,0-.23,3.11-1.49,3.71-2.43l-1.92,3.44,3.49-1.89c.71.77-4.06,2.47-1.79,3.79l3.99-2.32-3.11,3.28,4.22-2.08-1.52,3.11,3.46-.97-2.2,3.32,2.06-.58c-.32,1.42-.73,2.49.04,3.87l2.62-1.93-.84,2.92,2.81-1.68-3.33,3.03,2.77-.77Z"/>
  </g>
  <ellipse class="cls-1" cx="210.17" cy="229.04" rx="6.57" ry="6.74" transform="translate(-7.95 7.56) rotate(-2.02)"/>
</svg>